<svg width="1024" height="1024" viewBox="0 0 1024 1024" fill="none" xmlns="http://www.w3.org/2000/svg">
<rect width="1024" height="1024" fill="#2A4EED"/>
<path fill-rule="evenodd" clip-rule="evenodd" d="M540.623 646.211C484.468 749.041 365.167 736.596 356.546 731.417C404.086 789.563 499.809 811.551 573.413 789.899C599.113 734.633 605.143 673.976 552.057 613.462C551.934 624.251 547.007 634.526 540.624 646.211" fill="white" fill-opacity="0.9"/>
<path fill-rule="evenodd" clip-rule="evenodd" d="M534.752 644.877C517.502 655.769 491.731 657.643 473.339 657.643C413.039 657.643 353.403 615.807 323.664 568.167C314.441 622.738 330.044 673.123 356.906 713.283C427.4 720.55 495.862 708.56 534.751 644.883" fill="white" fill-opacity="0.8"/>
<path fill-rule="evenodd" clip-rule="evenodd" d="M390.281 471.217C390.283 471.229 390.283 471.242 390.281 471.254C390.853 470.745 391.407 470.22 391.981 469.716C391.409 470.213 390.842 470.713 390.281 471.216" fill="white"/>
<path fill-rule="evenodd" clip-rule="evenodd" d="M517.071 649.338C506.563 649.02 497.136 645.395 490.765 642.628C458.013 628.403 430.628 604.137 412.566 573.333C394.504 542.529 386.699 506.783 390.277 471.254C363.433 495.206 344.022 526.355 334.348 561.007C382.073 630.136 451.388 662.654 517.071 649.338Z" fill="white" fill-opacity="0.7"/>
<path fill-rule="evenodd" clip-rule="evenodd" d="M585.134 225C365.714 394.912 506.025 530.84 578.15 636.991C612.426 687.445 619.857 733.004 598.887 789.506C658.819 758.062 703.645 683.842 703.645 611.472C703.645 450.772 473.745 367.06 585.134 225.001" fill="white"/>
</svg>
